<?xml version="1.0" encoding="utf-8"?>
<!-- Generator: Adobe Illustrator 15.1.0, SVG Export Plug-In . SVG Version: 6.00 Build 0)  -->
<!DOCTYPE svg PUBLIC "-//W3C//DTD SVG 1.1//EN" "http://www.w3.org/Graphics/SVG/1.1/DTD/svg11.dtd">
<svg version="1.1" id="Layer_1" xmlns="http://www.w3.org/2000/svg" xmlns:xlink="http://www.w3.org/1999/xlink" x="0px" y="0px"
	 width="31.316px" height="34.867px" viewBox="0 0 31.316 34.867" enable-background="new 0 0 31.316 34.867" xml:space="preserve">
<g>
	
		<path fill="none" stroke="#FFFFFF" stroke-width="1.9842" stroke-linecap="round" stroke-linejoin="round" stroke-miterlimit="22.9256" d="
		M15.658,33.875C6.904,30.083,0.992,22.894,0.992,14.646c0-4.227,0.051-8.462,0.051-12.692c1.313,1.545,3.955,2.6,7.002,2.6
		c3.646,0,6.711-1.51,7.615-3.562c0.902,2.052,3.969,3.562,7.613,3.562c3.047,0,5.689-1.055,7.002-2.6
		c0,4.23,0.049,8.466,0.049,12.692C30.324,22.894,24.414,30.083,15.658,33.875L15.658,33.875z"/>
	<g>
		<path fill="#FFFFFF" d="M7.966,24.087V9.146h3.08c0.553,0,1.042,0.029,1.465,0.087c0.424,0.059,0.839,0.172,1.245,0.341
			c0.407,0.168,0.742,0.394,1.005,0.676c0.263,0.282,0.473,0.654,0.631,1.117c0.157,0.462,0.236,1.008,0.236,1.639
			c0,0.78-0.184,1.395-0.552,1.843c-0.368,0.448-0.939,0.802-1.714,1.063c1.776,0.432,2.665,1.688,2.665,3.768
			c0,1.5-0.36,2.609-1.079,3.329s-1.818,1.079-3.295,1.079H7.966z M10.971,15.023h0.515c0.277,0,0.509-0.053,0.697-0.158
			s0.331-0.259,0.427-0.46c0.097-0.202,0.165-0.419,0.204-0.652s0.058-0.506,0.058-0.822c0-0.249-0.018-0.468-0.054-0.656
			c-0.036-0.188-0.076-0.344-0.121-0.469c-0.044-0.124-0.119-0.229-0.224-0.315c-0.105-0.085-0.198-0.149-0.278-0.19
			c-0.08-0.042-0.202-0.072-0.365-0.092c-0.163-0.019-0.294-0.03-0.394-0.033c-0.1-0.002-0.254-0.004-0.465-0.004V15.023z
			 M10.988,21.955h0.282c0.393,0,0.711-0.046,0.955-0.138c0.244-0.091,0.429-0.247,0.556-0.469s0.211-0.472,0.253-0.751
			c0.041-0.279,0.062-0.654,0.062-1.125c0-0.78-0.137-1.386-0.411-1.818c-0.274-0.432-0.74-0.647-1.399-0.647h-0.299V21.955z"/>
		<path fill="#FFFFFF" d="M17.43,24.087V9.146h6.233v2.075h-3.212v4.067h2.273v2.125h-2.273v6.674H17.43z"/>
	</g>
</g>
<g>
	
		<path fill="none" stroke="#FFFFFF" stroke-width="1.9842" stroke-linecap="round" stroke-linejoin="round" stroke-miterlimit="22.9256" d="
		M15.77,52.726c-8.791,0-15.916,6.316-15.916,14.109S6.979,80.945,15.77,80.945c1.755,0,3.443-0.252,5.021-0.717
		c1.787,1.674,4.1,3.162,6.998,4.33l-0.959-7.576c2.994-2.566,4.855-6.164,4.855-10.146C31.686,59.042,24.561,52.726,15.77,52.726
		L15.77,52.726z"/>
	
		<path fill="none" stroke="#FFFFFF" stroke-width="1.9842" stroke-linecap="round" stroke-linejoin="round" stroke-miterlimit="22.9256" d="
		M11.761,63.541c0-3.984,7.276-4.031,7.346-0.143c0.055,3.006-3.458,2.383-3.458,6.006"/>
	
		<path fill="none" stroke="#FFFFFF" stroke-width="1.9842" stroke-linecap="round" stroke-linejoin="round" stroke-miterlimit="22.9256" d="
		M15.667,73.835c0.066,0.002,0.135,0.002,0.203,0.002"/>
</g>
<g>
	
		<line fill="none" stroke="#FFFFFF" stroke-width="1.9842" stroke-linecap="round" stroke-linejoin="round" stroke-miterlimit="22.9256" x1="-0.64" y1="131.869" x2="32.243" y2="131.869"/>
	
		<polygon fill="none" stroke="#FFFFFF" stroke-width="1.9842" stroke-linecap="round" stroke-linejoin="round" stroke-miterlimit="22.9256" points="
		1.146,115.704 5.542,115.704 5.542,127.953 1.146,127.953 1.146,115.704 	"/>
	
		<polygon fill="none" stroke="#FFFFFF" stroke-width="1.9842" stroke-linecap="round" stroke-linejoin="round" stroke-miterlimit="22.9256" points="
		9.452,108.594 13.847,108.594 13.847,127.953 9.452,127.953 9.452,108.594 	"/>
	
		<polygon fill="none" stroke="#FFFFFF" stroke-width="1.9842" stroke-linecap="round" stroke-linejoin="round" stroke-miterlimit="22.9256" points="
		17.757,112.446 22.151,112.446 22.151,127.953 17.757,127.953 17.757,112.446 	"/>
	
		<polygon fill="none" stroke="#FFFFFF" stroke-width="1.9842" stroke-linecap="round" stroke-linejoin="round" stroke-miterlimit="22.9256" points="
		26.062,101.781 30.456,101.781 30.456,127.953 26.062,127.953 26.062,101.781 	"/>
</g>
<g>
	
		<path fill="none" stroke="#FFFFFF" stroke-width="1.9842" stroke-linecap="round" stroke-linejoin="round" stroke-miterlimit="22.9256" d="
		M29.433,161.401v22.482c0,0.639-0.537,1.177-1.176,1.177H8.813c-0.637,0-1.176-0.528-1.176-1.177v-28.971
		c0-0.646,0.529-1.176,1.176-1.176h12.955"/>
	
		<path fill="none" stroke="#FFFFFF" stroke-width="1.9842" stroke-linecap="round" stroke-linejoin="round" stroke-miterlimit="22.9256" d="
		M29.433,161.401h-6.488c-0.646,0-1.176-0.529-1.176-1.176v-6.488L29.433,161.401L29.433,161.401z"/>
	
		<line fill="none" stroke="#FFFFFF" stroke-width="1.9842" stroke-linecap="round" stroke-linejoin="round" stroke-miterlimit="22.9256" x1="12.339" y1="160.038" x2="18.536" y2="160.038"/>
	
		<line fill="none" stroke="#FFFFFF" stroke-width="1.9842" stroke-linecap="round" stroke-linejoin="round" stroke-miterlimit="22.9256" x1="12.339" y1="165.901" x2="24.731" y2="165.901"/>
	
		<line fill="none" stroke="#FFFFFF" stroke-width="1.9842" stroke-linecap="round" stroke-linejoin="round" stroke-miterlimit="22.9256" x1="12.339" y1="169.325" x2="24.731" y2="169.325"/>
	
		<line fill="none" stroke="#FFFFFF" stroke-width="1.9842" stroke-linecap="round" stroke-linejoin="round" stroke-miterlimit="22.9256" x1="12.339" y1="172.748" x2="24.731" y2="172.748"/>
	
		<line fill="none" stroke="#FFFFFF" stroke-width="1.9842" stroke-linecap="round" stroke-linejoin="round" stroke-miterlimit="22.9256" x1="12.339" y1="176.17" x2="18.536" y2="176.17"/>
</g>
<path fill="none" stroke="#FFFFFF" stroke-width="1.9842" stroke-linecap="round" stroke-linejoin="round" stroke-miterlimit="22.9256" d="
	M28.851,216.171H8.231 M23.013,222.64l6.523-6.469l-6.523-6.469"/>
</svg>
